<svg width="64px" height="64px" viewBox="-2.68 -2.68 32.16 32.16" xmlns="http://www.w3.org/2000/svg" fill="#5e5c64" stroke="#5e5c64" stroke-width="0.00026804" transform="rotate(270)"><g id="SVGRepo_bgCarrier" stroke-width="0" transform="translate(8.443259999999999,8.443259999999999), scale(0.37)"><path transform="translate(-2.68, -2.68), scale(2.01)" fill="#000000" d="M9.166.33a2.25 2.25 0 00-2.332 0l-5.25 3.182A2.25 2.25 0 00.5 5.436v5.128a2.25 2.25 0 001.084 1.924l5.25 3.182a2.25 2.25 0 002.332 0l5.25-3.182a2.25 2.25 0 001.084-1.924V5.436a2.25 2.25 0 00-1.084-1.924L9.166.33z" strokewidth="0"></path></g><g id="SVGRepo_tracerCarrier" stroke-linecap="round" stroke-linejoin="round" stroke="#CCCCCC" stroke-width="0.643296"></g><g id="SVGRepo_iconCarrier"> <g id="Group_37" data-name="Group 37" transform="translate(-108.142 -942.014)"> <path id="Path_17" data-name="Path 17" d="M109.642,968.818a1.5,1.5,0,0,1-1.5-1.5v-23.8a1.5,1.5,0,0,1,2.25-1.3l20.616,11.9a1.5,1.5,0,0,1,0,2.6l-20.616,11.9A1.5,1.5,0,0,1,109.642,968.818Zm1.5-22.707V964.72l16.116-9.3Z" fill="#000000"></path> </g> </g></svg>
